<?xml version="1.0" encoding="utf-8"?>
<!-- Generator: Adobe Illustrator 16.0.0, SVG Export Plug-In . SVG Version: 6.00 Build 0)  -->
<!DOCTYPE svg PUBLIC "-//W3C//DTD SVG 1.1//EN" "http://www.w3.org/Graphics/SVG/1.1/DTD/svg11.dtd">
<svg version="1.1" id="Layer_1" xmlns="http://www.w3.org/2000/svg" xmlns:xlink="http://www.w3.org/1999/xlink" x="0px" y="0px"
	 width="115px" height="52px" viewBox="0 0 563.141 369" enable-background="new 0 0 563.141 369" xml:space="preserve">
<path fill="#1796BB" d="M272.73,313.209h-41.175l-4.595-7.445c-9.316,7.006-19.898,10.496-31.77,10.496
	c-13.904,0-25.738-3.242-35.495-9.734c-9.753-6.483-14.631-15.32-14.631-26.523V120.858c0-9.405,3.857-16.887,11.572-22.42
	c7.718-5.535,17.06-8.303,28.034-8.303c15.044,0,26.268,2.742,33.67,8.205V39.571h54.385v273.637L272.73,313.209L272.73,313.209z
	 M218.345,271.803V134.216c0-6.487-3.115-9.73-9.353-9.73c-6.362,0-9.539,3.374-9.539,10.115v137.2
	c0,6.748,3.18,10.111,9.539,10.111C215.227,281.912,218.345,278.551,218.345,271.803z"/>
<path fill="#EF4D4E" d="M293.936,360.147v-32.057h44.191c12.887,0,19.324-6.677,19.324-20.032
	c-7.147,5.47-18.365,8.205-33.666,8.205c-10.721,0-20-2.829-27.837-8.496c-7.844-5.648-11.77-13.069-11.77-22.227V126.39
	c0-24.16,14.479-36.253,43.429-36.253c7.647,0,17.728,3.242,30.229,9.729l7.085-8.209h46.92v218.495
	c0,14.378-2.844,26.307-8.516,35.78c-5.679,9.483-23.319,14.215-52.921,14.215H293.936z M357.451,273.707V134.601
	c0-6.741-3.112-10.115-9.354-10.115c-6.358,0-9.535,3.376-9.535,10.115v138.728c0,6.749,3.177,10.111,9.535,10.111
	C354.336,283.438,357.451,280.198,357.451,273.707z"/>
<path fill="#8AB03F" d="M423.669,219.326v-84.348c0-29.887,21.32-44.841,63.932-44.841c42.239,0,63.353,15.586,63.353,46.752
	v132.617c0,31.173-21.115,46.754-63.353,46.754c-42.611,0-63.932-14.945-63.932-44.843V226.38h54.385v44.655
	c0,7.511,3.055,11.26,9.162,11.26c6.24,0,9.351-3.749,9.351-11.26v-51.713h-72.897V219.326z M496.569,186.122v-50.759
	c0-7.251-3.11-10.874-9.351-10.874c-6.106,0-9.161,3.621-9.161,10.874v50.759H496.569z"/>
<path fill="#F1BB1A" d="M7.691,136.889v132.622c0,31.172,20.448,46.753,62.687,46.749c42.612,0,63.256-14.945,63.256-44.843V227.44
	H79.658v43.593c0,7.511-2.799,11.261-8.902,11.261c-6.235,0-9.089-3.75-9.089-11.261v-50.79h71.967v-85.262
	c0-21.22-10.795-34.872-28.787-41.028v21.938H40.076V93.729C18.487,99.954,7.691,114.314,7.691,136.889z M61.668,135.363
	c0-7.251,2.854-10.874,9.089-10.874c6.106,0,8.902,3.621,8.902,10.874v52.497H61.668V135.363z"/>
<g>
	<path fill="#FFFFFF" d="M347.728,75.7c0,0.368-0.091,0.677-0.273,0.925c-0.184,0.252-0.481,0.471-0.893,0.65
		c-0.416,0.184-0.985,0.321-1.717,0.411c-0.73,0.09-1.644,0.14-2.741,0.14c-1.145,0-2.084-0.046-2.814-0.14
		c-0.729-0.094-1.303-0.227-1.712-0.411c-0.415-0.18-0.713-0.398-0.893-0.65c-0.183-0.249-0.277-0.558-0.277-0.925V39.558
		c0-3.519-0.277-6.355-0.824-8.502c-0.551-2.148-1.35-4.001-2.4-5.553c-1.051-1.554-2.411-2.745-4.08-3.565
		c-1.67-0.82-3.598-1.234-5.797-1.234c-2.83,0-5.665,1.007-8.498,3.018c-2.839,2.011-5.809,4.962-8.918,8.844V75.7
		c0,0.368-0.094,0.677-0.271,0.925c-0.185,0.252-0.482,0.471-0.894,0.65c-0.41,0.184-0.983,0.321-1.714,0.411
		c-0.734,0.09-1.67,0.14-2.813,0.14c-1.098,0-2.011-0.046-2.745-0.14c-0.73-0.09-1.313-0.227-1.748-0.411
		c-0.438-0.18-0.734-0.398-0.896-0.65c-0.161-0.249-0.234-0.558-0.234-0.925V13.981c0-0.367,0.067-0.677,0.204-0.926
		c0.138-0.252,0.413-0.482,0.824-0.687s0.936-0.342,1.576-0.411c0.64-0.068,1.486-0.101,2.537-0.101
		c1.003,0,1.842,0.032,2.504,0.101c0.662,0.069,1.176,0.206,1.544,0.411c0.363,0.205,0.626,0.435,0.787,0.687
		c0.159,0.249,0.237,0.559,0.237,0.926v8.161c3.477-3.886,6.938-6.732,10.394-8.54c3.449-1.806,6.938-2.711,10.457-2.711
		c4.115,0,7.577,0.698,10.387,2.095c2.811,1.394,5.085,3.257,6.821,5.588c1.738,2.331,2.983,5.066,3.738,8.193
		c0.754,3.135,1.131,6.894,1.131,11.282v37.648h0.011V75.7z"/>
	<path fill="#FFFFFF" d="M425.77,44.153c0,5.027-0.667,9.658-1.991,13.885c-1.324,4.231-3.303,7.878-5.93,10.939
		c-2.631,3.062-5.924,5.451-9.877,7.167c-3.951,1.712-8.536,2.57-13.751,2.57c-5.069,0-9.496-0.753-13.266-2.263
		c-3.771-1.512-6.914-3.703-9.432-6.585c-2.517-2.879-4.39-6.377-5.625-10.493c-1.234-4.113-1.849-8.777-1.849-13.987
		c0-5.031,0.65-9.657,1.954-13.889c1.301-4.227,3.268-7.874,5.896-10.939c2.63-3.062,5.909-5.441,9.84-7.132
		c3.929-1.691,8.527-2.537,13.784-2.537c5.075,0,9.496,0.752,13.271,2.264c3.775,1.512,6.915,3.703,9.431,6.581
		c2.517,2.882,4.403,6.379,5.656,10.493C425.143,34.349,425.77,38.986,425.77,44.153z M414.043,44.91
		c0-3.337-0.312-6.492-0.932-9.464c-0.627-2.971-1.651-5.577-3.081-7.818c-1.429-2.242-3.368-4.012-5.811-5.314
		c-2.444-1.303-5.489-1.954-9.133-1.954c-3.368,0-6.265,0.593-8.687,1.784c-2.42,1.192-4.416,2.867-5.984,5.041
		c-1.569,2.17-2.731,4.743-3.493,7.716c-0.759,2.973-1.142,6.217-1.142,9.737c0,3.381,0.313,6.559,0.936,9.531
		s1.659,5.566,3.116,7.783c1.452,2.22,3.399,3.977,5.846,5.282c2.443,1.303,5.488,1.95,9.133,1.95c3.321,0,6.207-0.593,8.651-1.781
		c2.442-1.187,4.451-2.856,6.02-5.004c1.568-2.148,2.721-4.711,3.458-7.679C413.672,51.741,414.043,48.475,414.043,44.91z"/>
	<path fill="#FFFFFF" d="M492.426,13.844c0,0.185-0.012,0.378-0.032,0.583c-0.024,0.208-0.06,0.421-0.105,0.652
		c-0.046,0.226-0.104,0.478-0.171,0.752c-0.069,0.273-0.148,0.572-0.241,0.892l-21.05,58.631c-0.184,0.504-0.426,0.918-0.721,1.235
		c-0.298,0.32-0.744,0.572-1.338,0.754c-0.6,0.181-1.35,0.307-2.266,0.378c-0.912,0.07-2.058,0.101-3.429,0.101
		s-2.516-0.045-3.43-0.14c-0.914-0.091-1.655-0.227-2.228-0.412c-0.57-0.179-1.018-0.431-1.337-0.752
		c-0.319-0.32-0.573-0.709-0.752-1.166l-20.988-58.63c-0.183-0.547-0.334-1.027-0.445-1.441c-0.115-0.414-0.185-0.719-0.205-0.925
		c-0.025-0.205-0.036-0.377-0.036-0.515c0-0.368,0.091-0.684,0.273-0.961c0.18-0.273,0.489-0.492,0.925-0.651
		c0.431-0.161,1.003-0.263,1.713-0.309c0.707-0.047,1.587-0.069,2.641-0.069c1.325,0,2.39,0.033,3.188,0.101
		c0.799,0.069,1.418,0.195,1.853,0.377c0.433,0.184,0.753,0.411,0.961,0.684c0.209,0.277,0.399,0.619,0.587,1.028l17.416,50.884
		l0.273,0.825l0.209-0.825l17.215-50.884c0.085-0.41,0.248-0.751,0.479-1.028c0.226-0.273,0.561-0.5,0.992-0.684
		c0.436-0.183,1.033-0.309,1.785-0.377c0.755-0.068,1.749-0.101,2.983-0.101c1.05,0,1.921,0.022,2.604,0.069
		c0.687,0.046,1.225,0.158,1.612,0.341c0.385,0.185,0.662,0.4,0.824,0.652C492.347,13.168,492.426,13.477,492.426,13.844z"/>
	<path fill="#FFFFFF" d="M549.688,75.77c0,0.545-0.184,0.96-0.546,1.234c-0.371,0.272-0.868,0.481-1.509,0.619
		c-0.64,0.136-1.576,0.204-2.81,0.204c-1.191,0-2.136-0.072-2.847-0.204c-0.706-0.138-1.223-0.346-1.538-0.619
		c-0.324-0.273-0.483-0.685-0.483-1.234v-6.171c-2.699,2.882-5.702,5.12-9.017,6.721c-3.314,1.601-6.822,2.4-10.525,2.4
		c-3.25,0-6.185-0.422-8.813-1.27c-2.626-0.846-4.867-2.07-6.72-3.67c-1.85-1.602-3.294-3.566-4.324-5.898
		c-1.028-2.332-1.542-4.98-1.542-7.956c0-3.473,0.708-6.492,2.126-9.05c1.421-2.559,3.45-4.685,6.103-6.379
		c2.652-1.687,5.901-2.957,9.736-3.803c3.844-0.845,8.162-1.27,12.966-1.27h8.503v-4.8c0-2.375-0.252-4.48-0.757-6.309
		c-0.504-1.828-1.313-3.348-2.431-4.562c-1.122-1.209-2.572-2.126-4.355-2.742c-1.783-0.616-3.977-0.925-6.583-0.925
		c-2.789,0-5.295,0.331-7.51,0.993c-2.217,0.667-4.16,1.397-5.826,2.195c-1.669,0.802-3.065,1.533-4.185,2.196
		c-1.123,0.666-1.954,0.993-2.505,0.993c-0.367,0-0.684-0.09-0.961-0.273c-0.271-0.183-0.513-0.458-0.72-0.825
		c-0.205-0.363-0.353-0.831-0.445-1.404c-0.091-0.572-0.137-1.202-0.137-1.886c0-1.141,0.079-2.043,0.237-2.71
		c0.163-0.662,0.552-1.287,1.166-1.88c0.618-0.598,1.685-1.292,3.189-2.094c1.506-0.802,3.246-1.533,5.211-2.196
		c1.963-0.661,4.114-1.209,6.446-1.644c2.331-0.436,4.686-0.652,7.062-0.652c4.436,0,8.207,0.504,11.319,1.507
		c3.104,1.008,5.623,2.483,7.543,4.423c1.921,1.943,3.313,4.354,4.184,7.232c0.867,2.882,1.302,6.24,1.302,10.083V75.77H549.688
		L549.688,75.77z M538.444,47.582h-9.669c-3.108,0-5.809,0.263-8.092,0.788c-2.284,0.526-4.181,1.303-5.692,2.332
		c-1.512,1.03-2.618,2.264-3.324,3.703c-0.709,1.439-1.062,3.098-1.062,4.969c0,3.202,1.015,5.749,3.051,7.647
		c2.033,1.896,4.88,2.846,8.539,2.846c2.973,0,5.73-0.753,8.262-2.263c2.541-1.509,5.2-3.818,7.991-6.928V47.582H538.444z"/>
</g>
<rect x="74.816" y="87.319" fill="#F1BB1A" width="24.008" height="24.008"/>
<rect x="45.273" y="87.319" fill="#F1BB1A" width="24.009" height="24.008"/>
<rect x="80.192" y="53.267" transform="matrix(0.9317 0.3631 -0.3631 0.9317 29.9956 -29.0239)" fill="#F1BB1A" width="24.005" height="24.006"/>
<rect x="45.273" y="59.313" fill="#F1BB1A" width="24.009" height="24.005"/>
</svg>
